G04 #@! TF.GenerationSoftware,KiCad,Pcbnew,(5.1.9-0-10_14)*
G04 #@! TF.CreationDate,2021-07-10T20:50:17+09:00*
G04 #@! TF.ProjectId,TouchSwitch,546f7563-6853-4776-9974-63682e6b6963,V1.0*
G04 #@! TF.SameCoordinates,Original*
G04 #@! TF.FileFunction,Legend,Bot*
G04 #@! TF.FilePolarity,Positive*
%FSLAX46Y46*%
G04 Gerber Fmt 4.6, Leading zero omitted, Abs format (unit mm)*
G04 Created by KiCad (PCBNEW (5.1.9-0-10_14)) date 2021-07-10 20:50:17*
%MOMM*%
%LPD*%
G01*
G04 APERTURE LIST*
%ADD10C,0.200000*%
G04 APERTURE END LIST*
D10*
X5828571Y-15342857D02*
X5142857Y-15342857D01*
X5485714Y-16542857D02*
X5485714Y-15342857D01*
X4571428Y-16542857D02*
X4685714Y-16485714D01*
X4742857Y-16428571D01*
X4799999Y-16314285D01*
X4799999Y-15971428D01*
X4742857Y-15857142D01*
X4685714Y-15800000D01*
X4571428Y-15742857D01*
X4399999Y-15742857D01*
X4285714Y-15800000D01*
X4228571Y-15857142D01*
X4171428Y-15971428D01*
X4171428Y-16314285D01*
X4228571Y-16428571D01*
X4285714Y-16485714D01*
X4399999Y-16542857D01*
X4571428Y-16542857D01*
X3142857Y-15742857D02*
X3142857Y-16542857D01*
X3657142Y-15742857D02*
X3657142Y-16371428D01*
X3599999Y-16485714D01*
X3485714Y-16542857D01*
X3314285Y-16542857D01*
X3199999Y-16485714D01*
X3142857Y-16428571D01*
X2057142Y-16485714D02*
X2171428Y-16542857D01*
X2400000Y-16542857D01*
X2514285Y-16485714D01*
X2571428Y-16428571D01*
X2628571Y-16314285D01*
X2628571Y-15971428D01*
X2571428Y-15857142D01*
X2514285Y-15800000D01*
X2400000Y-15742857D01*
X2171428Y-15742857D01*
X2057142Y-15800000D01*
X1542857Y-16542857D02*
X1542857Y-15342857D01*
X1028571Y-16542857D02*
X1028571Y-15914285D01*
X1085714Y-15800000D01*
X1200000Y-15742857D01*
X1371428Y-15742857D01*
X1485714Y-15800000D01*
X1542857Y-15857142D01*
X-399999Y-16485714D02*
X-571428Y-16542857D01*
X-857142Y-16542857D01*
X-971428Y-16485714D01*
X-1028571Y-16428571D01*
X-1085714Y-16314285D01*
X-1085714Y-16200000D01*
X-1028571Y-16085714D01*
X-971428Y-16028571D01*
X-857142Y-15971428D01*
X-628571Y-15914285D01*
X-514285Y-15857142D01*
X-457142Y-15800000D01*
X-399999Y-15685714D01*
X-399999Y-15571428D01*
X-457142Y-15457142D01*
X-514285Y-15400000D01*
X-628571Y-15342857D01*
X-914285Y-15342857D01*
X-1085714Y-15400000D01*
X-1485714Y-15742857D02*
X-1714285Y-16542857D01*
X-1942857Y-15971428D01*
X-2171428Y-16542857D01*
X-2399999Y-15742857D01*
X-2857142Y-16542857D02*
X-2857142Y-15742857D01*
X-2857142Y-15342857D02*
X-2799999Y-15400000D01*
X-2857142Y-15457142D01*
X-2914285Y-15400000D01*
X-2857142Y-15342857D01*
X-2857142Y-15457142D01*
X-3257142Y-15742857D02*
X-3714285Y-15742857D01*
X-3428571Y-15342857D02*
X-3428571Y-16371428D01*
X-3485714Y-16485714D01*
X-3599999Y-16542857D01*
X-3714285Y-16542857D01*
X-4628571Y-16485714D02*
X-4514285Y-16542857D01*
X-4285714Y-16542857D01*
X-4171428Y-16485714D01*
X-4114285Y-16428571D01*
X-4057142Y-16314285D01*
X-4057142Y-15971428D01*
X-4114285Y-15857142D01*
X-4171428Y-15800000D01*
X-4285714Y-15742857D01*
X-4514285Y-15742857D01*
X-4628571Y-15800000D01*
X-5142857Y-16542857D02*
X-5142857Y-15342857D01*
X-5657142Y-16542857D02*
X-5657142Y-15914285D01*
X-5600000Y-15800000D01*
X-5485714Y-15742857D01*
X-5314285Y-15742857D01*
X-5200000Y-15800000D01*
X-5142857Y-15857142D01*
X1828571Y-17342857D02*
X1428571Y-18542857D01*
X1028571Y-17342857D01*
X0Y-18542857D02*
X685714Y-18542857D01*
X342857Y-18542857D02*
X342857Y-17342857D01*
X457142Y-17514285D01*
X571428Y-17628571D01*
X685714Y-17685714D01*
X-514285Y-18428571D02*
X-571428Y-18485714D01*
X-514285Y-18542857D01*
X-457142Y-18485714D01*
X-514285Y-18428571D01*
X-514285Y-18542857D01*
X-1314285Y-17342857D02*
X-1428571Y-17342857D01*
X-1542857Y-17400000D01*
X-1599999Y-17457142D01*
X-1657142Y-17571428D01*
X-1714285Y-17800000D01*
X-1714285Y-18085714D01*
X-1657142Y-18314285D01*
X-1599999Y-18428571D01*
X-1542857Y-18485714D01*
X-1428571Y-18542857D01*
X-1314285Y-18542857D01*
X-1199999Y-18485714D01*
X-1142857Y-18428571D01*
X-1085714Y-18314285D01*
X-1028571Y-18085714D01*
X-1028571Y-17800000D01*
X-1085714Y-17571428D01*
X-1142857Y-17457142D01*
X-1199999Y-17400000D01*
X-1314285Y-17342857D01*
M02*
