G04 #@! TF.GenerationSoftware,KiCad,Pcbnew,(5.1.9-0-10_14)*
G04 #@! TF.CreationDate,2021-07-10T20:50:17+09:00*
G04 #@! TF.ProjectId,TouchSwitch,546f7563-6853-4776-9974-63682e6b6963,V1.0*
G04 #@! TF.SameCoordinates,Original*
G04 #@! TF.FileFunction,Soldermask,Top*
G04 #@! TF.FilePolarity,Negative*
%FSLAX46Y46*%
G04 Gerber Fmt 4.6, Leading zero omitted, Abs format (unit mm)*
G04 Created by KiCad (PCBNEW (5.1.9-0-10_14)) date 2021-07-10 20:50:17*
%MOMM*%
%LPD*%
G01*
G04 APERTURE LIST*
%ADD10R,0.500000X1.300000*%
%ADD11C,1.600000*%
%ADD12R,0.400000X1.600000*%
%ADD13R,2.400000X3.000000*%
%ADD14R,1.800000X1.000000*%
%ADD15R,0.600000X1.000000*%
G04 APERTURE END LIST*
D10*
X7950000Y-16700000D03*
X7000000Y-16700000D03*
X6050000Y-16700000D03*
X6050000Y-19300000D03*
X7950000Y-19300000D03*
X7000000Y-19300000D03*
X-6050000Y-16700000D03*
X-7000000Y-16700000D03*
X-7950000Y-16700000D03*
X-7950000Y-19300000D03*
X-6050000Y-19300000D03*
X-7000000Y-19300000D03*
D11*
X-3810000Y-11430000D03*
X3810000Y-11430000D03*
X1270000Y-11430000D03*
X-1270000Y-11430000D03*
G36*
G01*
X12350000Y-11775000D02*
X12350000Y-12225000D01*
G75*
G02*
X12125000Y-12450000I-225000J0D01*
G01*
X11575000Y-12450000D01*
G75*
G02*
X11350000Y-12225000I0J225000D01*
G01*
X11350000Y-11775000D01*
G75*
G02*
X11575000Y-11550000I225000J0D01*
G01*
X12125000Y-11550000D01*
G75*
G02*
X12350000Y-11775000I0J-225000D01*
G01*
G37*
G36*
G01*
X10650000Y-11775000D02*
X10650000Y-12225000D01*
G75*
G02*
X10425000Y-12450000I-225000J0D01*
G01*
X9875000Y-12450000D01*
G75*
G02*
X9650000Y-12225000I0J225000D01*
G01*
X9650000Y-11775000D01*
G75*
G02*
X9875000Y-11550000I225000J0D01*
G01*
X10425000Y-11550000D01*
G75*
G02*
X10650000Y-11775000I0J-225000D01*
G01*
G37*
G36*
G01*
X-12350000Y-12225000D02*
X-12350000Y-11775000D01*
G75*
G02*
X-12125000Y-11550000I225000J0D01*
G01*
X-11575000Y-11550000D01*
G75*
G02*
X-11350000Y-11775000I0J-225000D01*
G01*
X-11350000Y-12225000D01*
G75*
G02*
X-11575000Y-12450000I-225000J0D01*
G01*
X-12125000Y-12450000D01*
G75*
G02*
X-12350000Y-12225000I0J225000D01*
G01*
G37*
G36*
G01*
X-10650000Y-12225000D02*
X-10650000Y-11775000D01*
G75*
G02*
X-10425000Y-11550000I225000J0D01*
G01*
X-9875000Y-11550000D01*
G75*
G02*
X-9650000Y-11775000I0J-225000D01*
G01*
X-9650000Y-12225000D01*
G75*
G02*
X-9875000Y-12450000I-225000J0D01*
G01*
X-10425000Y-12450000D01*
G75*
G02*
X-10650000Y-12225000I0J225000D01*
G01*
G37*
D12*
X1600000Y-7100000D03*
X800000Y-7100000D03*
X0Y-7100000D03*
X-800000Y-7100000D03*
X-1600000Y-7100000D03*
D13*
X4200000Y-4500000D03*
X-4200000Y-4500000D03*
G36*
G01*
X1350000Y-16275000D02*
X1350000Y-16725000D01*
G75*
G02*
X1125000Y-16950000I-225000J0D01*
G01*
X575000Y-16950000D01*
G75*
G02*
X350000Y-16725000I0J225000D01*
G01*
X350000Y-16275000D01*
G75*
G02*
X575000Y-16050000I225000J0D01*
G01*
X1125000Y-16050000D01*
G75*
G02*
X1350000Y-16275000I0J-225000D01*
G01*
G37*
G36*
G01*
X-350000Y-16275000D02*
X-350000Y-16725000D01*
G75*
G02*
X-575000Y-16950000I-225000J0D01*
G01*
X-1125000Y-16950000D01*
G75*
G02*
X-1350000Y-16725000I0J225000D01*
G01*
X-1350000Y-16275000D01*
G75*
G02*
X-1125000Y-16050000I225000J0D01*
G01*
X-575000Y-16050000D01*
G75*
G02*
X-350000Y-16275000I0J-225000D01*
G01*
G37*
D14*
X-550000Y-18500000D03*
D15*
X1150000Y-18500000D03*
G36*
G01*
X16350000Y-11775000D02*
X16350000Y-12225000D01*
G75*
G02*
X16125000Y-12450000I-225000J0D01*
G01*
X15575000Y-12450000D01*
G75*
G02*
X15350000Y-12225000I0J225000D01*
G01*
X15350000Y-11775000D01*
G75*
G02*
X15575000Y-11550000I225000J0D01*
G01*
X16125000Y-11550000D01*
G75*
G02*
X16350000Y-11775000I0J-225000D01*
G01*
G37*
G36*
G01*
X14650000Y-11775000D02*
X14650000Y-12225000D01*
G75*
G02*
X14425000Y-12450000I-225000J0D01*
G01*
X13875000Y-12450000D01*
G75*
G02*
X13650000Y-12225000I0J225000D01*
G01*
X13650000Y-11775000D01*
G75*
G02*
X13875000Y-11550000I225000J0D01*
G01*
X14425000Y-11550000D01*
G75*
G02*
X14650000Y-11775000I0J-225000D01*
G01*
G37*
G36*
G01*
X-16350000Y-12225000D02*
X-16350000Y-11775000D01*
G75*
G02*
X-16125000Y-11550000I225000J0D01*
G01*
X-15575000Y-11550000D01*
G75*
G02*
X-15350000Y-11775000I0J-225000D01*
G01*
X-15350000Y-12225000D01*
G75*
G02*
X-15575000Y-12450000I-225000J0D01*
G01*
X-16125000Y-12450000D01*
G75*
G02*
X-16350000Y-12225000I0J225000D01*
G01*
G37*
G36*
G01*
X-14650000Y-12225000D02*
X-14650000Y-11775000D01*
G75*
G02*
X-14425000Y-11550000I225000J0D01*
G01*
X-13875000Y-11550000D01*
G75*
G02*
X-13650000Y-11775000I0J-225000D01*
G01*
X-13650000Y-12225000D01*
G75*
G02*
X-13875000Y-12450000I-225000J0D01*
G01*
X-14425000Y-12450000D01*
G75*
G02*
X-14650000Y-12225000I0J225000D01*
G01*
G37*
G36*
G01*
X-1350000Y-20725000D02*
X-1350000Y-20275000D01*
G75*
G02*
X-1125000Y-20050000I225000J0D01*
G01*
X-575000Y-20050000D01*
G75*
G02*
X-350000Y-20275000I0J-225000D01*
G01*
X-350000Y-20725000D01*
G75*
G02*
X-575000Y-20950000I-225000J0D01*
G01*
X-1125000Y-20950000D01*
G75*
G02*
X-1350000Y-20725000I0J225000D01*
G01*
G37*
G36*
G01*
X350000Y-20725000D02*
X350000Y-20275000D01*
G75*
G02*
X575000Y-20050000I225000J0D01*
G01*
X1125000Y-20050000D01*
G75*
G02*
X1350000Y-20275000I0J-225000D01*
G01*
X1350000Y-20725000D01*
G75*
G02*
X1125000Y-20950000I-225000J0D01*
G01*
X575000Y-20950000D01*
G75*
G02*
X350000Y-20725000I0J225000D01*
G01*
G37*
M02*
