G04 #@! TF.GenerationSoftware,KiCad,Pcbnew,(5.1.9-0-10_14)*
G04 #@! TF.CreationDate,2021-07-10T20:50:17+09:00*
G04 #@! TF.ProjectId,TouchSwitch,546f7563-6853-4776-9974-63682e6b6963,V1.0*
G04 #@! TF.SameCoordinates,Original*
G04 #@! TF.FileFunction,Legend,Top*
G04 #@! TF.FilePolarity,Positive*
%FSLAX46Y46*%
G04 Gerber Fmt 4.6, Leading zero omitted, Abs format (unit mm)*
G04 Created by KiCad (PCBNEW (5.1.9-0-10_14)) date 2021-07-10 20:50:17*
%MOMM*%
%LPD*%
G01*
G04 APERTURE LIST*
%ADD10C,0.120000*%
%ADD11C,0.200000*%
%ADD12C,0.150000*%
G04 APERTURE END LIST*
D10*
X-3800000Y-7000000D02*
X-2100000Y-7000000D01*
X-3800000Y-6300000D02*
X-3800000Y-7000000D01*
X3800000Y-7000000D02*
X2100000Y-7000000D01*
X3800000Y-6300000D02*
X3800000Y-7000000D01*
X3800000Y-2700000D02*
X3800000Y-300000D01*
X-3800000Y-2700000D02*
X-3800000Y-300000D01*
D11*
X13971428Y-17485714D02*
X14142857Y-17542857D01*
X14428571Y-17542857D01*
X14542857Y-17485714D01*
X14600000Y-17428571D01*
X14657142Y-17314285D01*
X14657142Y-17200000D01*
X14600000Y-17085714D01*
X14542857Y-17028571D01*
X14428571Y-16971428D01*
X14200000Y-16914285D01*
X14085714Y-16857142D01*
X14028571Y-16800000D01*
X13971428Y-16685714D01*
X13971428Y-16571428D01*
X14028571Y-16457142D01*
X14085714Y-16400000D01*
X14200000Y-16342857D01*
X14485714Y-16342857D01*
X14657142Y-16400000D01*
X15057142Y-16342857D02*
X15342857Y-17542857D01*
X15571428Y-16685714D01*
X15800000Y-17542857D01*
X16085714Y-16342857D01*
X14657142Y-18457142D02*
X14714285Y-18400000D01*
X14828571Y-18342857D01*
X15114285Y-18342857D01*
X15228571Y-18400000D01*
X15285714Y-18457142D01*
X15342857Y-18571428D01*
X15342857Y-18685714D01*
X15285714Y-18857142D01*
X14600000Y-19542857D01*
X15342857Y-19542857D01*
X-16028571Y-17485714D02*
X-15857142Y-17542857D01*
X-15571428Y-17542857D01*
X-15457142Y-17485714D01*
X-15400000Y-17428571D01*
X-15342857Y-17314285D01*
X-15342857Y-17200000D01*
X-15400000Y-17085714D01*
X-15457142Y-17028571D01*
X-15571428Y-16971428D01*
X-15800000Y-16914285D01*
X-15914285Y-16857142D01*
X-15971428Y-16800000D01*
X-16028571Y-16685714D01*
X-16028571Y-16571428D01*
X-15971428Y-16457142D01*
X-15914285Y-16400000D01*
X-15800000Y-16342857D01*
X-15514285Y-16342857D01*
X-15342857Y-16400000D01*
X-14942857Y-16342857D02*
X-14657142Y-17542857D01*
X-14428571Y-16685714D01*
X-14200000Y-17542857D01*
X-13914285Y-16342857D01*
X-14657142Y-19542857D02*
X-15342857Y-19542857D01*
X-15000000Y-19542857D02*
X-15000000Y-18342857D01*
X-15114285Y-18514285D01*
X-15228571Y-18628571D01*
X-15342857Y-18685714D01*
D10*
X14700000Y-13600000D02*
X15200000Y-13300000D01*
X15200000Y-13000000D02*
X15200000Y-13600000D01*
X14700000Y-13000000D02*
X14700000Y-13600000D01*
X15200000Y-13300000D02*
X14700000Y-13000000D01*
X14700000Y-13300000D02*
X14500000Y-13300000D01*
X15200000Y-13300000D02*
X15400000Y-13300000D01*
X-14700000Y-13300000D02*
X-14500000Y-13300000D01*
X-15200000Y-13300000D02*
X-15400000Y-13300000D01*
X-15200000Y-13600000D02*
X-15200000Y-13000000D01*
X-15200000Y-13300000D02*
X-14700000Y-13600000D01*
X-14700000Y-13000000D02*
X-15200000Y-13300000D01*
X-14700000Y-13600000D02*
X-14700000Y-13000000D01*
D12*
X-857142Y-9802761D02*
X-714285Y-9850380D01*
X-476190Y-9850380D01*
X-380952Y-9802761D01*
X-333333Y-9755142D01*
X-285714Y-9659904D01*
X-285714Y-9564666D01*
X-333333Y-9469428D01*
X-380952Y-9421809D01*
X-476190Y-9374190D01*
X-666666Y-9326571D01*
X-761904Y-9278952D01*
X-809523Y-9231333D01*
X-857142Y-9136095D01*
X-857142Y-9040857D01*
X-809523Y-8945619D01*
X-761904Y-8898000D01*
X-666666Y-8850380D01*
X-428571Y-8850380D01*
X-285714Y-8898000D01*
X47619Y-8850380D02*
X285714Y-9850380D01*
X476190Y-9136095D01*
X666666Y-9850380D01*
X904761Y-8850380D01*
X984285Y-13009619D02*
X1031904Y-12962000D01*
X1127142Y-12914380D01*
X1365238Y-12914380D01*
X1460476Y-12962000D01*
X1508095Y-13009619D01*
X1555714Y-13104857D01*
X1555714Y-13200095D01*
X1508095Y-13342952D01*
X936666Y-13914380D01*
X1555714Y-13914380D01*
X-984285Y-13914380D02*
X-1555714Y-13914380D01*
X-1270000Y-13914380D02*
X-1270000Y-12914380D01*
X-1365238Y-13057238D01*
X-1460476Y-13152476D01*
X-1555714Y-13200095D01*
X3276666Y-9371000D02*
X4343333Y-9371000D01*
X3810000Y-9904333D02*
X3810000Y-8837666D01*
X-4571904Y-8898000D02*
X-4667142Y-8850380D01*
X-4810000Y-8850380D01*
X-4952857Y-8898000D01*
X-5048095Y-8993238D01*
X-5095714Y-9088476D01*
X-5143333Y-9278952D01*
X-5143333Y-9421809D01*
X-5095714Y-9612285D01*
X-5048095Y-9707523D01*
X-4952857Y-9802761D01*
X-4810000Y-9850380D01*
X-4714761Y-9850380D01*
X-4571904Y-9802761D01*
X-4524285Y-9755142D01*
X-4524285Y-9421809D01*
X-4714761Y-9421809D01*
X-4095714Y-9850380D02*
X-4095714Y-8850380D01*
X-3524285Y-9850380D01*
X-3524285Y-8850380D01*
X-3048095Y-9850380D02*
X-3048095Y-8850380D01*
X-2810000Y-8850380D01*
X-2667142Y-8898000D01*
X-2571904Y-8993238D01*
X-2524285Y-9088476D01*
X-2476666Y-9278952D01*
X-2476666Y-9421809D01*
X-2524285Y-9612285D01*
X-2571904Y-9707523D01*
X-2667142Y-9802761D01*
X-2810000Y-9850380D01*
X-3048095Y-9850380D01*
D10*
X5500000Y-18950000D02*
X5600000Y-18950000D01*
X5500000Y-17050000D02*
X5500000Y-18950000D01*
X5600000Y-17050000D02*
X5500000Y-17050000D01*
X8500000Y-17050000D02*
X8400000Y-17050000D01*
X8500000Y-18950000D02*
X8500000Y-17050000D01*
X8400000Y-18950000D02*
X8500000Y-18950000D01*
D11*
X8050000Y-15700000D02*
G75*
G03*
X8050000Y-15700000I-100000J0D01*
G01*
X7600000Y-17600000D02*
X7600000Y-18400000D01*
D10*
X-8500000Y-18950000D02*
X-8400000Y-18950000D01*
X-8500000Y-17050000D02*
X-8500000Y-18950000D01*
X-8400000Y-17050000D02*
X-8500000Y-17050000D01*
X-5500000Y-17050000D02*
X-5600000Y-17050000D01*
X-5500000Y-18950000D02*
X-5500000Y-17050000D01*
X-5600000Y-18950000D02*
X-5500000Y-18950000D01*
D11*
X-5950000Y-15700000D02*
G75*
G03*
X-5950000Y-15700000I-100000J0D01*
G01*
X-6400000Y-17600000D02*
X-6400000Y-18400000D01*
D10*
X-2760000Y-11430000D02*
G75*
G03*
X-2760000Y-11430000I-1050000J0D01*
G01*
X4860000Y-11430000D02*
G75*
G03*
X4860000Y-11430000I-1050000J0D01*
G01*
X2320000Y-11430000D02*
G75*
G03*
X2320000Y-11430000I-1050000J0D01*
G01*
X-220000Y-11430000D02*
G75*
G03*
X-220000Y-11430000I-1050000J0D01*
G01*
X12650000Y-11250000D02*
X9350000Y-11250000D01*
X12650000Y-12750000D02*
X9350000Y-12750000D01*
X9350000Y-12750000D02*
X9350000Y-11250000D01*
X12650000Y-12750000D02*
X12650000Y-11250000D01*
X-12650000Y-12750000D02*
X-9350000Y-12750000D01*
X-12650000Y-11250000D02*
X-9350000Y-11250000D01*
X-9350000Y-11250000D02*
X-9350000Y-12750000D01*
X-12650000Y-11250000D02*
X-12650000Y-12750000D01*
X1650000Y-15750000D02*
X-1650000Y-15750000D01*
X1650000Y-17250000D02*
X-1650000Y-17250000D01*
X-1650000Y-17250000D02*
X-1650000Y-15750000D01*
X1650000Y-17250000D02*
X1650000Y-15750000D01*
X1650000Y-19250000D02*
X1650000Y-17750000D01*
X1650000Y-19250000D02*
X-1650000Y-19250000D01*
X-1650000Y-19250000D02*
X-1650000Y-17750000D01*
X-1650000Y-17750000D02*
X1650000Y-17750000D01*
X16650000Y-11250000D02*
X13350000Y-11250000D01*
X16650000Y-12750000D02*
X13350000Y-12750000D01*
X13350000Y-12750000D02*
X13350000Y-11250000D01*
X16650000Y-12750000D02*
X16650000Y-11250000D01*
X-16650000Y-12750000D02*
X-13350000Y-12750000D01*
X-16650000Y-11250000D02*
X-13350000Y-11250000D01*
X-13350000Y-11250000D02*
X-13350000Y-12750000D01*
X-16650000Y-11250000D02*
X-16650000Y-12750000D01*
X-1650000Y-21250000D02*
X1650000Y-21250000D01*
X-1650000Y-19750000D02*
X1650000Y-19750000D01*
X1650000Y-19750000D02*
X1650000Y-21250000D01*
X-1650000Y-19750000D02*
X-1650000Y-21250000D01*
D12*
X6238095Y-20452380D02*
X6238095Y-21261904D01*
X6285714Y-21357142D01*
X6333333Y-21404761D01*
X6428571Y-21452380D01*
X6619047Y-21452380D01*
X6714285Y-21404761D01*
X6761904Y-21357142D01*
X6809523Y-21261904D01*
X6809523Y-20452380D01*
X7238095Y-20547619D02*
X7285714Y-20500000D01*
X7380952Y-20452380D01*
X7619047Y-20452380D01*
X7714285Y-20500000D01*
X7761904Y-20547619D01*
X7809523Y-20642857D01*
X7809523Y-20738095D01*
X7761904Y-20880952D01*
X7190476Y-21452380D01*
X7809523Y-21452380D01*
X-7761904Y-20452380D02*
X-7761904Y-21261904D01*
X-7714285Y-21357142D01*
X-7666666Y-21404761D01*
X-7571428Y-21452380D01*
X-7380952Y-21452380D01*
X-7285714Y-21404761D01*
X-7238095Y-21357142D01*
X-7190476Y-21261904D01*
X-7190476Y-20452380D01*
X-6190476Y-21452380D02*
X-6761904Y-21452380D01*
X-6476190Y-21452380D02*
X-6476190Y-20452380D01*
X-6571428Y-20595238D01*
X-6666666Y-20690476D01*
X-6761904Y-20738095D01*
X10833333Y-10952380D02*
X10500000Y-10476190D01*
X10261904Y-10952380D02*
X10261904Y-9952380D01*
X10642857Y-9952380D01*
X10738095Y-10000000D01*
X10785714Y-10047619D01*
X10833333Y-10142857D01*
X10833333Y-10285714D01*
X10785714Y-10380952D01*
X10738095Y-10428571D01*
X10642857Y-10476190D01*
X10261904Y-10476190D01*
X11214285Y-10047619D02*
X11261904Y-10000000D01*
X11357142Y-9952380D01*
X11595238Y-9952380D01*
X11690476Y-10000000D01*
X11738095Y-10047619D01*
X11785714Y-10142857D01*
X11785714Y-10238095D01*
X11738095Y-10380952D01*
X11166666Y-10952380D01*
X11785714Y-10952380D01*
X-11166666Y-10952380D02*
X-11500000Y-10476190D01*
X-11738095Y-10952380D02*
X-11738095Y-9952380D01*
X-11357142Y-9952380D01*
X-11261904Y-10000000D01*
X-11214285Y-10047619D01*
X-11166666Y-10142857D01*
X-11166666Y-10285714D01*
X-11214285Y-10380952D01*
X-11261904Y-10428571D01*
X-11357142Y-10476190D01*
X-11738095Y-10476190D01*
X-10214285Y-10952380D02*
X-10785714Y-10952380D01*
X-10500000Y-10952380D02*
X-10500000Y-9952380D01*
X-10595238Y-10095238D01*
X-10690476Y-10190476D01*
X-10785714Y-10238095D01*
X2666666Y-16428571D02*
X2333333Y-16428571D01*
X2333333Y-16952380D02*
X2333333Y-15952380D01*
X2809523Y-15952380D01*
X3714285Y-16952380D02*
X3142857Y-16952380D01*
X3428571Y-16952380D02*
X3428571Y-15952380D01*
X3333333Y-16095238D01*
X3238095Y-16190476D01*
X3142857Y-16238095D01*
X2261904Y-18952380D02*
X2261904Y-17952380D01*
X2500000Y-17952380D01*
X2642857Y-18000000D01*
X2738095Y-18095238D01*
X2785714Y-18190476D01*
X2833333Y-18380952D01*
X2833333Y-18523809D01*
X2785714Y-18714285D01*
X2738095Y-18809523D01*
X2642857Y-18904761D01*
X2500000Y-18952380D01*
X2261904Y-18952380D01*
X3166666Y-17952380D02*
X3785714Y-17952380D01*
X3452380Y-18333333D01*
X3595238Y-18333333D01*
X3690476Y-18380952D01*
X3738095Y-18428571D01*
X3785714Y-18523809D01*
X3785714Y-18761904D01*
X3738095Y-18857142D01*
X3690476Y-18904761D01*
X3595238Y-18952380D01*
X3309523Y-18952380D01*
X3214285Y-18904761D01*
X3166666Y-18857142D01*
X14261904Y-10952380D02*
X14261904Y-9952380D01*
X14500000Y-9952380D01*
X14642857Y-10000000D01*
X14738095Y-10095238D01*
X14785714Y-10190476D01*
X14833333Y-10380952D01*
X14833333Y-10523809D01*
X14785714Y-10714285D01*
X14738095Y-10809523D01*
X14642857Y-10904761D01*
X14500000Y-10952380D01*
X14261904Y-10952380D01*
X15214285Y-10047619D02*
X15261904Y-10000000D01*
X15357142Y-9952380D01*
X15595238Y-9952380D01*
X15690476Y-10000000D01*
X15738095Y-10047619D01*
X15785714Y-10142857D01*
X15785714Y-10238095D01*
X15738095Y-10380952D01*
X15166666Y-10952380D01*
X15785714Y-10952380D01*
X-15738095Y-10952380D02*
X-15738095Y-9952380D01*
X-15500000Y-9952380D01*
X-15357142Y-10000000D01*
X-15261904Y-10095238D01*
X-15214285Y-10190476D01*
X-15166666Y-10380952D01*
X-15166666Y-10523809D01*
X-15214285Y-10714285D01*
X-15261904Y-10809523D01*
X-15357142Y-10904761D01*
X-15500000Y-10952380D01*
X-15738095Y-10952380D01*
X-14214285Y-10952380D02*
X-14785714Y-10952380D01*
X-14500000Y-10952380D02*
X-14500000Y-9952380D01*
X-14595238Y-10095238D01*
X-14690476Y-10190476D01*
X-14785714Y-10238095D01*
X2833333Y-20857142D02*
X2785714Y-20904761D01*
X2642857Y-20952380D01*
X2547619Y-20952380D01*
X2404761Y-20904761D01*
X2309523Y-20809523D01*
X2261904Y-20714285D01*
X2214285Y-20523809D01*
X2214285Y-20380952D01*
X2261904Y-20190476D01*
X2309523Y-20095238D01*
X2404761Y-20000000D01*
X2547619Y-19952380D01*
X2642857Y-19952380D01*
X2785714Y-20000000D01*
X2833333Y-20047619D01*
X3785714Y-20952380D02*
X3214285Y-20952380D01*
X3500000Y-20952380D02*
X3500000Y-19952380D01*
X3404761Y-20095238D01*
X3309523Y-20190476D01*
X3214285Y-20238095D01*
M02*
